HIERARCHY
ROOT Hips
{
	OFFSET 0.000000 0.000000 0.000000
	CHANNELS 6 Xposition Yposition Zposition Zrotation Yrotation Xrotation 
	JOINT LHipJoint
	{
		OFFSET 0.000000 0.000000 0.000000
		CHANNELS 3 Zrotation Yrotation Xrotation
		JOINT LeftUpLeg
		{
			OFFSET 1.363060 -1.794630 0.839290
			CHANNELS 3 Zrotation Yrotation Xrotation
			JOINT LeftLeg
			{
				OFFSET 2.448110 -6.726130 0.000000
				CHANNELS 3 Zrotation Yrotation Xrotation
				JOINT LeftFoot
				{
					OFFSET 2.562200 -7.039590 0.000000
					CHANNELS 3 Zrotation Yrotation Xrotation
					JOINT LeftToeBase
					{
						OFFSET 0.157640 -0.433110 2.322550
						CHANNELS 3 Zrotation Yrotation Xrotation
						End Site
						{
							OFFSET 0.000000 0.000000 0.000000
						}
					}
				}
			}
		}
	}
	JOINT RHipJoint
	{
		OFFSET 0.000000 0.000000 0.000000
		CHANNELS 3 Zrotation Yrotation Xrotation
		JOINT RightUpLeg
		{
			OFFSET -1.305520 -1.794630 0.839290
			CHANNELS 3 Zrotation Yrotation Xrotation
			JOINT RightLeg
			{
				OFFSET -2.542530 -6.985550 0.000000
				CHANNELS 3 Zrotation Yrotation Xrotation
				JOINT RightFoot
				{
					OFFSET -2.568260 -7.056230 0.000000
					CHANNELS 3 Zrotation Yrotation Xrotation
					JOINT RightToeBase
					{
						OFFSET -0.164730 -0.452590 2.363150
						CHANNELS 3 Zrotation Yrotation Xrotation
						End Site
						{
							OFFSET 0.000000 0.000000 0.000000
						}
					}
				}
			}
		}
	}
	JOINT LowerBack
	{
		OFFSET 0.000000 0.000000 0.000000
		CHANNELS 3 Zrotation Yrotation Xrotation
		JOINT Spine
		{
			OFFSET 0.028270 2.035590 -0.193380
			CHANNELS 3 Zrotation Yrotation Xrotation
			JOINT Spine1
			{
				OFFSET 0.056720 2.048850 -0.042750
				CHANNELS 3 Zrotation Yrotation Xrotation
				JOINT Neck
				{
					OFFSET 0.000000 0.000000 0.000000
					CHANNELS 3 Zrotation Yrotation Xrotation
					JOINT Neck1
					{
						OFFSET -0.054170 1.746240 0.172020
						CHANNELS 3 Zrotation Yrotation Xrotation
						JOINT Head
						{
							OFFSET 0.104070 1.761360 -0.123970
							CHANNELS 3 Zrotation Yrotation Xrotation
							End Site
							{
								OFFSET 0.000000 0.000000 0.000000
							}
						}
					}
				}
				JOINT LeftShoulder
				{
					OFFSET 0.000000 0.000000 0.000000
					CHANNELS 3 Zrotation Yrotation Xrotation
					JOINT LeftArm
					{
						OFFSET 3.362410 1.200890 -0.311210
						CHANNELS 3 Zrotation Yrotation Xrotation
						JOINT LeftForeArm
						{
							OFFSET 4.983000 -0.000000 -0.000000
							CHANNELS 3 Zrotation Yrotation Xrotation
							JOINT LeftHand
							{
								OFFSET 3.483560 -0.000000 -0.000000
								CHANNELS 3 Zrotation Yrotation Xrotation
								JOINT LeftFingerBase
								{
									OFFSET 0.000000 0.000000 0.000000
									CHANNELS 3 Zrotation Yrotation Xrotation
									JOINT LeftHandIndex1
									{
										OFFSET 0.715260 -0.000000 -0.000000
										CHANNELS 3 Zrotation Yrotation Xrotation
										End Site
										{
											OFFSET 0.000000 0.000000 0.000000
										}
									}
								}
								JOINT LThumb
								{
									OFFSET 0.000000 0.000000 0.000000
									CHANNELS 3 Zrotation Yrotation Xrotation
									End Site
									{
										OFFSET 0.000000 0.000000 0.000000
									}
								}
							}
						}
					}
				}
				JOINT RightShoulder
				{
					OFFSET 0.000000 0.000000 0.000000
					CHANNELS 3 Zrotation Yrotation Xrotation
					JOINT RightArm
					{
						OFFSET -3.136600 1.374050 -0.404650
						CHANNELS 3 Zrotation Yrotation Xrotation
						JOINT RightForeArm
						{
							OFFSET -5.241900 -0.000000 -0.000000
							CHANNELS 3 Zrotation Yrotation Xrotation
							JOINT RightHand
							{
								OFFSET -3.444170 -0.000000 -0.000000
								CHANNELS 3 Zrotation Yrotation Xrotation
								JOINT RightFingerBase
								{
									OFFSET 0.000000 0.000000 0.000000
									CHANNELS 3 Zrotation Yrotation Xrotation
									JOINT RightHandIndex1
									{
										OFFSET -0.622530 -0.000000 -0.000000
										CHANNELS 3 Zrotation Yrotation Xrotation
										End Site
										{
											OFFSET 0.000000 0.000000 0.000000
										}
									}
								}
								JOINT RThumb
								{
									OFFSET 0.000000 0.000000 0.000000
									CHANNELS 3 Zrotation Yrotation Xrotation
									End Site
									{
										OFFSET 0.000000 0.000000 0.000000
									}
								}
							}
						}
					}
				}
			}
		}
	}
}
MOTION
Frames: 8
Frame Time: 0.008333
9.487152 17.794337 50.347588 178.323765 13.193101 -179.600560 -2.169360 2.390887 2.555540 -19.042384 -13.908498 -7.140718 -2.359757 9.032164 25.489335 -5.233424 15.823105 -9.200909 1.247400 -7.081400 -19.956600 -2.713587 -2.077477 0.351959 17.422341 14.461948 -12.184211 -0.089735 -11.463271 33.619136 2.097380 -8.991210 -6.719236 -0.295600 3.495900 -9.662500 -1.927645 -2.199230 4.841987 -5.886086 -2.448111 6.940856 -3.995436 -1.208231 -7.215858 1.724351 4.711838 -9.943168 4.902209 6.890898 13.664569 -1.305500 4.247900 4.872000 -0.934649 -10.304679 1.333080 -84.412922 9.105251 2.461964 25.252209 -26.067467 -7.012661 1.531492 1.159139 19.925317 16.155768 -30.223745 -8.177200 -7.125000 0.000000 0.000000 -9.369300 -2.619500 9.918900 0.491853 11.271530 2.637488 85.542316 -12.249344 46.006561 -29.222828 33.064393 -10.750962 1.087059 0.906166 2.158796 -49.260400 -57.180178 45.210700 7.125000 0.000000 0.000000 -178.887400 -7.263600 0.963200 
9.479903 17.786731 50.336655 178.324698 13.466759 -179.773012 -2.148669 2.406059 2.605669 -19.122848 -13.612183 -7.104460 -2.335832 9.057317 25.594828 -5.260869 15.897664 -9.268759 1.531300 -7.812700 -22.146500 -2.732051 -2.094168 0.359462 17.490632 14.733446 -12.005342 -0.154354 -11.533547 33.888159 2.052242 -8.908861 -6.978262 -0.259100 3.274900 -9.045200 -1.959446 -2.195072 4.589314 -5.868686 -2.414319 7.247173 -3.994407 -1.202918 -6.916534 1.940229 4.734957 -10.035552 4.558192 6.966777 13.655893 -1.442400 4.273900 4.920400 -0.929273 -10.322963 1.333298 -84.160610 8.583898 2.394291 25.118937 -25.979591 -6.998929 1.615105 1.138793 19.579421 14.815016 -31.575116 -7.652800 -7.125000 0.000000 0.000000 -10.308100 -3.719800 11.132000 0.480059 11.308607 2.620181 85.444555 -12.005893 44.969907 -29.127254 32.981017 -10.703507 1.122666 0.884085 5.161793 -43.890409 -58.497332 40.290800 7.125000 0.000000 0.000000 -176.739000 -6.341300 2.885700 
9.471703 17.782096 50.331782 178.273891 13.728011 -179.940270 -2.125006 2.406747 2.640807 -19.243117 -13.224464 -7.145158 -2.310560 9.084461 25.691786 -5.278333 15.945089 -9.241140 1.605500 -7.991000 -22.686600 -2.752597 -2.092176 0.354230 17.434596 14.508704 -12.083233 -0.226435 -11.598043 34.128497 1.876808 -8.440155 -6.758177 -0.206500 2.925500 -8.071500 -2.078380 -2.235929 4.743255 -5.815431 -2.483511 7.220623 -3.896885 -1.230912 -7.020928 1.989810 4.756886 -10.013154 4.363334 7.071642 13.860095 -1.499800 4.339700 5.003100 -0.946382 -10.300690 1.328062 -84.171353 8.458667 1.963049 24.922013 -25.776133 -6.898958 1.620624 1.149894 20.129868 15.225721 -31.516677 -7.891000 -7.125000 0.000000 0.000000 -10.069600 -3.761400 10.873300 0.496337 11.331349 2.616168 85.311782 -11.993368 44.038443 -28.929511 32.790517 -10.579291 1.160362 0.832446 8.237151 -37.201963 -58.981416 33.998400 7.125000 0.000000 0.000000 -174.564500 -4.745000 4.990200 
9.462552 17.781146 50.330950 178.319722 13.952411 -179.900861 -2.108343 2.376712 2.636931 -19.212643 -12.931095 -7.358712 -2.283545 9.120406 25.778882 -5.333673 16.055287 -9.099670 1.731700 -8.283200 -23.577700 -2.769971 -2.060837 0.331641 17.443705 14.326793 -12.330131 -0.277859 -11.668726 34.315298 1.779915 -8.167375 -6.503439 -0.188800 2.798700 -7.718700 -2.035059 -2.283652 4.708236 -5.775731 -2.554600 7.148085 -3.894710 -1.271720 -7.028519 2.078940 4.776138 -9.992605 4.142290 7.174593 14.056172 -1.572600 4.404300 5.088700 -0.955286 -10.282399 1.326491 -84.142721 8.382816 1.589143 24.789099 -25.641661 -6.832959 1.622983 1.160212 20.417263 15.523999 -31.514501 -8.072200 -7.125000 0.000000 0.000000 -9.900800 -3.831800 10.697000 0.507856 11.352041 2.613467 85.280103 -11.951277 43.008685 -28.812469 32.690264 -10.525009 1.167355 0.807678 11.143129 -30.403277 -60.161901 27.920700 7.125000 0.000000 0.000000 -172.065600 -4.255200 7.396500 
9.451143 17.783047 50.328217 178.454805 14.140272 -179.829096 -2.094302 2.357398 2.630543 -19.113012 -12.790260 -7.494792 -2.264510 9.154397 25.870183 -5.396227 16.196213 -9.175915 1.789000 -8.411900 -23.972300 -2.786334 -2.034725 0.306633 17.559554 14.285525 -12.494544 -0.320497 -11.734501 34.484904 1.717994 -7.978942 -6.228764 -0.160300 2.580000 -7.111500 -1.810111 -2.347795 4.673876 -5.726856 -2.646779 7.003611 -3.999216 -1.329844 -7.073901 2.181791 4.795346 -9.785586 3.842037 7.276920 14.143970 -1.688800 4.462800 5.113700 -0.983868 -10.253883 1.345722 -84.191158 8.613427 0.675595 23.736479 -24.558047 -6.457479 1.439949 1.467081 24.946685 24.455102 -32.484452 -14.134900 -7.125000 0.000000 0.000000 -4.949500 -7.114200 5.544000 0.535915 11.345585 2.597368 85.212739 -11.929714 41.545984 -28.704527 32.562711 -10.418307 1.172864 0.718846 15.452347 -20.107474 -59.915537 18.485400 7.125000 0.000000 0.000000 -168.904900 -2.484800 10.811000 
9.439378 17.781383 50.329643 178.610855 14.267584 -179.817316 -2.077436 2.352034 2.638633 -18.997186 -12.649114 -7.583560 -2.245085 9.184213 25.962293 -5.412959 16.236643 -9.268404 1.789800 -8.413800 -23.978300 -2.802805 -2.010094 0.280108 17.725985 14.234269 -12.635966 -0.363924 -11.804321 34.668624 1.737314 -8.004487 -6.025584 -0.182600 2.751900 -7.588900 -1.545791 -2.430492 4.748419 -5.718890 -2.751580 6.904512 -4.108056 -1.399073 -7.175764 2.401875 4.794318 -9.589603 3.470248 7.348932 14.213279 -1.847600 4.506000 5.142900 -0.938377 -10.252530 1.327527 -84.250120 8.671634 1.167214 25.197385 -26.049351 -6.971974 1.520298 1.172279 19.878001 16.536056 -30.106997 -8.373400 -7.125000 0.000000 0.000000 -9.136300 -2.582600 9.660200 0.542130 11.370103 2.585939 85.176823 -11.769612 40.025215 -28.514927 32.339721 -10.224501 1.153210 0.642034 19.992948 -8.807948 -58.728765 8.344700 7.125000 0.000000 0.000000 -14.635900 3.082000 -165.690100 
9.429395 17.776867 50.335823 178.595198 14.353857 -179.766372 -2.077065 2.320709 2.636578 -18.998543 -12.431302 -7.768272 -2.239311 9.185125 25.954224 -5.337427 16.053884 -9.086446 1.762900 -8.353600 -23.793400 -2.822481 -1.971456 0.249552 17.701647 14.214587 -12.898451 -0.417596 -11.892953 34.882697 1.743463 -8.020424 -5.990818 -0.242800 3.170800 -8.754700 -1.437335 -2.486906 4.691144 -5.840706 -2.807223 6.914949 -4.201148 -1.437666 -7.125323 2.717067 4.772554 -9.595349 3.126394 7.369497 14.259046 -2.004500 4.517700 5.197400 -0.931088 -10.243847 1.332470 -84.157847 8.709505 1.160422 25.278426 -26.134578 -6.996386 1.559814 1.120168 20.189672 15.532773 -29.796487 -7.712300 -7.125000 0.000000 0.000000 -9.694100 -2.054400 10.180300 0.568324 11.397999 2.548795 85.273133 -11.701426 40.656505 -27.979392 31.710784 -9.721296 1.245651 0.534258 16.925837 -16.742572 -52.552784 14.366900 7.125000 0.000000 0.000000 -10.932200 7.128700 -170.326700 
9.420601 17.770094 50.327029 178.389643 14.567718 -179.878487 -2.074548 2.303673 2.658073 -19.265405 -12.140352 -7.807063 -2.224031 9.206325 26.035510 -5.241846 15.868601 -9.136499 1.737600 -8.296600 -23.618700 -2.847505 -1.966186 0.245348 17.478529 14.239086 -12.964007 -0.490090 -11.957301 35.115188 1.513607 -7.426944 -5.921154 -0.179600 2.729600 -7.526800 -1.496337 -2.488778 4.503920 -6.016118 -2.782366 7.057878 -4.264764 -1.427982 -6.927407 2.898332 4.813152 -9.525877 2.891402 7.425944 14.096445 -2.116200 4.528800 5.159800 -0.915010 -10.261634 1.332097 -83.960533 8.554799 1.292360 25.231440 -26.074477 -6.942003 1.661495 1.004416 19.987997 12.698671 -29.377163 -6.000200 -7.125000 0.000000 0.000000 -11.336600 -1.072200 11.778100 0.564515 11.404514 2.542900 85.422962 -11.571457 40.333035 -28.009520 31.770169 -9.785567 1.231497 0.577329 17.166462 -15.183420 -53.928447 13.290200 7.125000 0.000000 0.000000 -11.755600 6.203500 -169.351500 
